<?xml version="1.0" encoding="UTF-8" standalone="no"?>
<!DOCTYPE svg PUBLIC "-//W3C//DTD SVG 1.1//EN" "http://www.w3.org/Graphics/SVG/1.1/DTD/svg11.dtd">
<svg width="100%" height="100%" viewBox="0 0 84 83" version="1.1" xmlns="http://www.w3.org/2000/svg" xmlns:xlink="http://www.w3.org/1999/xlink" xml:space="preserve" xmlns:serif="http://www.serif.com/" style="fill-rule:evenodd;clip-rule:evenodd;stroke-linejoin:round;stroke-miterlimit:2;">
    <g id="main">
        <g id="Fill-1" transform="matrix(0.970296,0.241922,-0.241922,0.970296,4.23112,-1.0064)">
            <path d="M5.81,19.492C3.146,17.927 -0.379,14.225 -0.284,12.979C-0.271,12.801 -0.165,12.251 0.019,12.23C0.391,12.185 0.333,12.615 0.632,12.74C1.977,13.301 3.681,15.36 7.389,16.802C10.3,17.933 13.288,18.225 12.619,20.3C12.1,21.91 8.855,21.281 5.81,19.492" style="fill:rgb(55,56,55);"/>
        </g>
        <g id="Fill-3" transform="matrix(0.970296,0.241922,-0.241922,0.970296,20.1277,-10.4735)">
            <path d="M54.292,76.745C54.715,79.841 55.194,79.704 55.638,81.324C55.638,81.324 55.776,81.58 55.68,81.666C55.59,81.747 53.845,82.314 53.78,82.215C53.674,82.054 53.915,81.951 53.782,81.753C53.094,80.72 51.352,79.954 50.352,76.835C49.397,73.854 49.31,71.567 51.523,71.26C54.607,70.833 54.007,74.657 54.292,76.745" style="fill:rgb(55,56,55);"/>
        </g>
        <g id="Fill-5" transform="matrix(0.970296,0.241922,-0.241922,0.970296,16.671,-1.32074)">
            <path d="M15.419,67.795C14.925,71.009 14.901,71.214 14.223,72.818C14.223,72.818 14.145,73.133 14.037,73.193C13.935,73.248 12.562,73.243 12.532,73.126C12.483,72.935 12.724,72.9 12.664,72.664C12.345,71.44 11.723,69.956 11.714,66.56C11.705,63.313 11.79,61.371 13.847,61.231C16.293,61.065 15.751,65.628 15.419,67.795" style="fill:rgb(55,56,55);"/>
        </g>
        <g id="Fill-8" transform="matrix(0.970296,0.241922,-0.241922,0.970296,10.1537,-9.24249)">
            <path d="M3.761,42.712C2.519,68.592 26.311,73.864 45.229,73.168C61.027,72.588 84.499,68.005 81.443,39.136C79.145,17.447 64.981,0.226 44.132,0.226C17.392,0.226 4.827,20.476 3.761,42.712" style="fill:rgb(35,31,32);"/>
        </g>
        <g id="Fill-11" transform="matrix(0.970296,0.241922,-0.241922,0.970296,7.40566,-7.86091)">
            <path d="M11.714,26.462C11.764,31.238 21.709,32.352 35.253,32.216C48.797,32.081 59.772,31.49 59.714,25.981C59.663,21.196 48.671,20.102 35.127,20.238C21.583,20.373 11.66,21.354 11.714,26.462" style="fill:rgb(255,204,30);"/>
        </g>
        <g id="Fill-13" transform="matrix(0.970296,0.241922,-0.241922,0.970296,7.00235,-12.5762)">
            <path d="M52.714,22.247C52.726,23.352 53.63,24.238 54.735,24.227C55.839,24.216 56.725,23.31 56.714,22.206C56.703,21.102 55.798,20.216 54.693,20.227C53.589,20.238 52.702,21.143 52.714,22.247" style="fill:rgb(254,254,254);"/>
        </g>
        <g id="Fill-15" transform="matrix(0.970296,0.241922,-0.241922,0.970296,4.08674,-4.83045)">
            <path d="M19.714,14.247C19.725,15.352 20.63,16.238 21.734,16.227C22.839,16.215 23.725,15.31 23.714,14.206C23.702,13.101 22.797,12.215 21.693,12.227C20.588,12.238 19.702,13.142 19.714,14.247" style="fill:rgb(254,254,254);"/>
        </g>
        <g id="Fill-17" transform="matrix(0.970296,0.241922,-0.241922,0.970296,7.40566,-7.86091)">
            <path d="M57.714,25.227C57.714,25.227 37.136,29.63 13.714,25.369C13.714,25.369 36.962,27.045 57.714,25.227" style="fill:rgb(33,28,29);"/>
        </g>
        <g id="Fill-19" transform="matrix(0.970296,0.241922,-0.241922,0.970296,14.4891,-17.5506)">
            <path d="M75.99,51.436C78.276,53.417 82.887,55.596 84.071,55.174C84.241,55.113 84.744,54.869 84.712,54.697C84.649,54.35 84.248,54.519 84.041,54.282C83.109,53.221 80.619,52.24 78.154,49.285C76.219,46.966 75.078,44.348 73.252,45.513C71.835,46.415 73.378,49.174 75.99,51.436" style="fill:rgb(55,56,55);"/>
        </g>
    </g>
</svg>
